<svg
  id="visual"
  viewBox="0 0 900 500"
  width="900"
  height="600"
  xmlns="http://www.w3.org/2000/svg"
  xmlns:xlink="http://www.w3.org/1999/xlink"
  version="1.1"
>
  <path
    d="M0 526L21.5 529.3C43 532.7 86 539.3 128.8 528.8C171.7 518.3 214.3 490.7 257.2 475C300 459.3 343 455.7 385.8 463.8C428.7 472 471.3 492 514.2 493C557 494 600 476 642.8 475.7C685.7 475.3 728.3 492.7 771.2 504.3C814 516 857 522 878.5 525L900 528L900 0L878.5 0C857 0 814 0 771.2 0C728.3 0 685.7 0 642.8 0C600 0 557 0 514.2 0C471.3 0 428.7 0 385.8 0C343 0 300 0 257.2 0C214.3 0 171.7 0 128.8 0C86 0 43 0 21.5 0L0 0Z"
    fill="#fa7268"
  ></path>
  <path
    d="M0 412L21.5 401.5C43 391 86 370 128.8 364.7C171.7 359.3 214.3 369.7 257.2 385.5C300 401.3 343 422.7 385.8 426C428.7 429.3 471.3 414.7 514.2 414.7C557 414.7 600 429.3 642.8 437.3C685.7 445.3 728.3 446.7 771.2 440.2C814 433.7 857 419.3 878.5 412.2L900 405L900 0L878.5 0C857 0 814 0 771.2 0C728.3 0 685.7 0 642.8 0C600 0 557 0 514.2 0C471.3 0 428.7 0 385.8 0C343 0 300 0 257.2 0C214.3 0 171.7 0 128.8 0C86 0 43 0 21.5 0L0 0Z"
    fill="#ef5f67"
  ></path>
  <path
    d="M0 333L21.5 333.3C43 333.7 86 334.3 128.8 323.5C171.7 312.7 214.3 290.3 257.2 280.3C300 270.3 343 272.7 385.8 270C428.7 267.3 471.3 259.7 514.2 256.2C557 252.7 600 253.3 642.8 264.2C685.7 275 728.3 296 771.2 300.3C814 304.7 857 292.3 878.5 286.2L900 280L900 0L878.5 0C857 0 814 0 771.2 0C728.3 0 685.7 0 642.8 0C600 0 557 0 514.2 0C471.3 0 428.7 0 385.8 0C343 0 300 0 257.2 0C214.3 0 171.7 0 128.8 0C86 0 43 0 21.5 0L0 0Z"
    fill="#e34c67"
  ></path>
  <path
    d="M0 188L21.5 189.7C43 191.3 86 194.7 128.8 199C171.7 203.3 214.3 208.7 257.2 215C300 221.3 343 228.7 385.8 231C428.7 233.3 471.3 230.7 514.2 218.5C557 206.3 600 184.7 642.8 176.2C685.7 167.7 728.3 172.3 771.2 172.3C814 172.3 857 167.7 878.5 165.3L900 163L900 0L878.5 0C857 0 814 0 771.2 0C728.3 0 685.7 0 642.8 0C600 0 557 0 514.2 0C471.3 0 428.7 0 385.8 0C343 0 300 0 257.2 0C214.3 0 171.7 0 128.8 0C86 0 43 0 21.5 0L0 0Z"
    fill="#d53867"
  ></path>
  <path
    d="M0 126L21.5 126.2C43 126.3 86 126.7 128.8 120.7C171.7 114.7 214.3 102.3 257.2 92.8C300 83.3 343 76.7 385.8 70.2C428.7 63.7 471.3 57.3 514.2 67.5C557 77.7 600 104.3 642.8 118.7C685.7 133 728.3 135 771.2 127.5C814 120 857 103 878.5 94.5L900 86L900 0L878.5 0C857 0 814 0 771.2 0C728.3 0 685.7 0 642.8 0C600 0 557 0 514.2 0C471.3 0 428.7 0 385.8 0C343 0 300 0 257.2 0C214.3 0 171.7 0 128.8 0C86 0 43 0 21.5 0L0 0Z"
    fill="#c62368"
  ></path>
</svg>
