<svg
  id="visual"
  viewBox="0 0 900 600"
  width="900"
  height="600"
  xmlns="http://www.w3.org/2000/svg"
  xmlns:xlink="http://www.w3.org/1999/xlink"
  version="1.1"
>
  <path
    d="M0 578L10 577.3C20 576.7 40 575.3 60 571.7C80 568 100 562 120 561.8C140 561.7 160 567.3 180 570.7C200 574 220 575 240 573.5C260 572 280 568 300 568.7C320 569.3 340 574.7 360 576.3C380 578 400 576 420 573.2C440 570.3 460 566.7 480 566.8C500 567 520 571 540 569.7C560 568.3 580 561.7 600 559C620 556.3 640 557.7 660 562C680 566.3 700 573.7 720 576.2C740 578.7 760 576.3 780 573.2C800 570 820 566 840 565.3C860 564.7 880 567.3 890 568.7L900 570L900 601L890 601C880 601 860 601 840 601C820 601 800 601 780 601C760 601 740 601 720 601C700 601 680 601 660 601C640 601 620 601 600 601C580 601 560 601 540 601C520 601 500 601 480 601C460 601 440 601 420 601C400 601 380 601 360 601C340 601 320 601 300 601C280 601 260 601 240 601C220 601 200 601 180 601C160 601 140 601 120 601C100 601 80 601 60 601C40 601 20 601 10 601L0 601Z"
    fill="#0066FF"
    stroke-linecap="round"
    stroke-linejoin="miter"
  ></path>
</svg>
